<svg width="38" height="39" viewBox="0 0 38 39" fill="none" xmlns="http://www.w3.org/2000/svg">
<path d="M35.573 7.94897H30.7869V3.16282C30.7869 2.58584 30.5577 2.03249 30.1497 1.6245C29.7417 1.21651 29.1883 0.987305 28.6114 0.987305H2.50511C1.92813 0.987305 1.37477 1.21651 0.966785 1.6245C0.558796 2.03249 0.32959 2.58584 0.32959 3.16282V31.8797C0.32959 33.6106 1.01721 35.2707 2.24118 36.4947C3.46514 37.7186 5.1252 38.4062 6.85615 38.4062H32.9624C34.2318 38.4062 35.4491 37.902 36.3467 37.0044C37.2443 36.1068 37.7485 34.8895 37.7485 33.6201V10.1245C37.7485 9.54751 37.5193 8.99415 37.1113 8.58616C36.7034 8.17817 36.15 7.94897 35.573 7.94897ZM17.2986 30.5744H6.85615C6.50996 30.5744 6.17795 30.4369 5.93316 30.1921C5.68836 29.9473 5.55084 29.6153 5.55084 29.2691C5.55084 28.9229 5.68836 28.5909 5.93316 28.3461C6.17795 28.1013 6.50996 27.9638 6.85615 27.9638H17.2986C17.6448 27.9638 17.9768 28.1013 18.2216 28.3461C18.4664 28.5909 18.604 28.9229 18.604 29.2691C18.604 29.6153 18.4664 29.9473 18.2216 30.1921C17.9768 30.4369 17.6448 30.5744 17.2986 30.5744ZM24.2603 25.3531H6.85615C6.50996 25.3531 6.17795 25.2156 5.93316 24.9708C5.68836 24.726 5.55084 24.394 5.55084 24.0478C5.55084 23.7016 5.68836 23.3696 5.93316 23.1248C6.17795 22.88 6.50996 22.7425 6.85615 22.7425H24.2603C24.6065 22.7425 24.9385 22.88 25.1833 23.1248C25.4281 23.3696 25.5656 23.7016 25.5656 24.0478C25.5656 24.394 25.4281 24.726 25.1833 24.9708C24.9385 25.2156 24.6065 25.3531 24.2603 25.3531ZM25.5656 17.9564C25.5611 18.3011 25.4221 18.6305 25.1783 18.8744C24.9345 19.1182 24.6051 19.2572 24.2603 19.2617H6.85615C6.51136 19.2572 6.18196 19.1182 5.93814 18.8744C5.69432 18.6305 5.55535 18.3011 5.55084 17.9564V9.25428C5.55535 8.90949 5.69432 8.58009 5.93814 8.33627C6.18196 8.09245 6.51136 7.95348 6.85615 7.94897H24.2603C24.6051 7.95348 24.9345 8.09245 25.1783 8.33627C25.4221 8.58009 25.5611 8.90949 25.5656 9.25428V17.9564ZM35.1379 33.6201C35.1379 34.1971 34.9087 34.7504 34.5007 35.1584C34.0927 35.5664 33.5394 35.7956 32.9624 35.7956C32.3854 35.7956 31.8321 35.5664 31.4241 35.1584C31.0161 34.7504 30.7869 34.1971 30.7869 33.6201V10.5596H35.1379V33.6201Z" fill="#424E3E"/>
<path d="M8.16162 10.5596H22.9552V16.651H8.16162V10.5596Z" fill="#424E3E"/>
</svg>
