<svg width="272" height="47" viewBox="0 0 272 47" fill="none" xmlns="http://www.w3.org/2000/svg">
<path opacity="0.08" d="M8.59578 20.1934H30.8678V27.0414H8.59578V20.1934ZM9.23578 39.3934H34.5158V46.3694H0.915781V1.56938H33.6198V8.54538H9.23578V39.3934ZM43.7908 46.3694V1.56938H50.6388L78.7348 36.0654H75.3428V1.56938H83.5988V46.3694H76.7508L48.6548 11.8734H52.0468V46.3694H43.7908ZM103.283 20.1934H125.555V27.0414H103.283V20.1934ZM103.923 39.3934H129.203V46.3694H95.6033V1.56938H128.307V8.54538H103.923V39.3934ZM138.478 46.3694V1.56938H156.91C160.878 1.56938 164.27 2.20938 167.086 3.48938C169.945 4.76938 172.142 6.60405 173.678 8.99338C175.214 11.3827 175.982 14.2201 175.982 17.5054C175.982 20.7907 175.214 23.6281 173.678 26.0174C172.142 28.3641 169.945 30.1774 167.086 31.4574C164.27 32.6947 160.878 33.3134 156.91 33.3134H143.086L146.798 29.5374V46.3694H138.478ZM167.79 46.3694L156.462 30.1134H165.358L176.75 46.3694H167.79ZM146.798 30.4334L143.086 26.4654H156.526C160.196 26.4654 162.948 25.6761 164.782 24.0974C166.66 22.5187 167.598 20.3214 167.598 17.5054C167.598 14.6467 166.66 12.4494 164.782 10.9134C162.948 9.37738 160.196 8.60938 156.526 8.60938H143.086L146.798 4.51338V30.4334ZM206.219 47.0094C202.72 47.0094 199.499 46.4547 196.555 45.3454C193.653 44.1934 191.115 42.5934 188.939 40.5454C186.763 38.4547 185.077 36.0014 183.883 33.1854C182.688 30.3694 182.091 27.2974 182.091 23.9694C182.091 20.6414 182.688 17.5694 183.883 14.7534C185.077 11.9374 186.763 9.50538 188.939 7.45738C191.157 5.36672 193.739 3.76672 196.683 2.65738C199.627 1.50538 202.848 0.929382 206.347 0.929382C210.144 0.929382 213.557 1.54805 216.587 2.78538C219.659 4.02272 222.24 5.83605 224.331 8.22538L219.083 13.3454C217.333 11.596 215.435 10.316 213.387 9.50538C211.381 8.65205 209.163 8.22538 206.731 8.22538C204.384 8.22538 202.208 8.60938 200.203 9.37738C198.197 10.1454 196.469 11.2334 195.019 12.6414C193.568 14.0494 192.437 15.7134 191.627 17.6334C190.859 19.5534 190.475 21.6654 190.475 23.9694C190.475 26.2307 190.859 28.3214 191.627 30.2414C192.437 32.1614 193.568 33.8467 195.019 35.2974C196.469 36.7054 198.176 37.7934 200.139 38.5614C202.101 39.3294 204.277 39.7134 206.667 39.7134C208.885 39.7134 211.019 39.3721 213.067 38.6894C215.157 37.9641 217.141 36.7694 219.019 35.1054L223.755 41.3134C221.408 43.1907 218.677 44.6201 215.563 45.6014C212.491 46.5401 209.376 47.0094 206.219 47.0094ZM215.883 40.2254V23.4574H223.755V41.3134L215.883 40.2254ZM245.736 46.3694V28.6414L247.592 33.7614L228.136 1.56938H237.032L252.648 27.4894H247.656L263.4 1.56938H271.592L252.136 33.7614L254.056 28.6414V46.3694H245.736Z" fill="#424E3E"/>
</svg>
