<svg width="44" height="33" viewBox="0 0 44 33" fill="none" xmlns="http://www.w3.org/2000/svg">
<path d="M43.4493 26.4102C42.8416 25.802 42.1856 25.2441 41.4878 24.7418C40.0143 26.4436 38.2842 27.874 36.3335 29C33.3119 30.7449 29.8754 31.6764 26.3881 31.6985C28.2399 32.4453 30.2364 32.837 32.2933 32.837C36.5075 32.837 40.4695 31.1959 43.4494 28.216C43.6888 27.9766 43.8233 27.652 43.8233 27.3135C43.8232 26.9747 43.6887 26.6499 43.4493 26.4102ZM2.5903 24.7418C1.89256 25.2442 1.23658 25.8021 0.628788 26.4102C0.389417 26.6496 0.254883 26.975 0.254883 27.3135C0.254883 27.652 0.389417 27.9766 0.628788 28.216C3.60871 31.1959 7.57071 32.837 11.7849 32.837C13.8418 32.837 15.8383 32.4453 17.6901 31.6985C14.2025 31.6764 10.7663 30.7449 7.74438 28.9999C5.79385 27.874 4.06371 26.4436 2.5903 24.7418ZM9.02089 26.7892C11.1429 28.0146 13.6099 28.8362 16.24 29.0743C11.6952 26.5588 9.23898 23.0665 8.08281 21.064C6.81132 18.8619 5.95196 16.4759 5.52461 13.9653C4.25492 14.0198 2.99092 14.2093 1.76114 14.5362C1.19952 14.6703 0.781958 15.1758 0.781958 15.7785C0.781958 15.8901 0.796594 16.0013 0.825526 16.1091C2.12917 20.9715 5.31222 24.6483 9.02089 26.7892ZM27.8381 29.0743C30.4682 28.8361 32.9352 28.0146 35.0572 26.7892C38.7659 24.6483 41.9489 20.9715 43.2527 16.1092C43.2816 16.0013 43.2962 15.8902 43.2962 15.7786C43.2962 15.1759 42.8787 14.6704 42.3171 14.5363C41.0873 14.2094 39.8233 14.0198 38.5536 13.9654C38.1262 16.476 37.2669 18.862 35.9954 21.064C34.8391 23.0666 32.3858 26.5572 27.8381 29.0743ZM16.1932 26.0608C14.9034 23.9774 12.9003 19.9782 12.9003 14.4962C12.9003 11.7182 13.4146 9.01603 14.4274 6.4523C13.0323 5.65659 11.5365 5.03778 9.97922 4.62065C9.29812 4.43837 8.59856 4.84223 8.41603 5.52307C7.02287 10.7205 8.00545 15.8249 10.2936 19.7875C11.6827 22.1936 13.6777 24.3921 16.1932 26.0608ZM27.8837 26.0616C30.3998 24.3928 32.3951 22.1939 33.7845 19.7875C36.0726 15.8248 37.0552 10.7205 35.662 5.52307C35.4795 4.84223 34.7799 4.43829 34.0988 4.62065C32.5412 5.03778 31.0454 5.65676 29.6502 6.45264C30.6628 9.0162 31.177 11.7183 31.177 14.4962C31.1771 19.9829 29.1705 23.9832 27.8837 26.0616ZM22.9416 0.776249C22.7022 0.536878 22.3768 0.402344 22.0383 0.402344C21.6998 0.402371 21.3751 0.536868 21.1358 0.776249C17.7925 4.11952 15.4532 8.94574 15.4532 14.4961C15.4532 20.049 17.7951 24.8754 21.1358 28.216C21.3752 28.4553 21.7006 28.5899 22.0391 28.5899C22.3776 28.5899 22.7022 28.4553 22.9416 28.216C26.2814 24.8763 28.6242 20.0503 28.6242 14.4961C28.6243 8.94319 26.2831 4.11765 22.9416 0.776249Z" fill="#424E3E"/>
</svg>
