<svg width="60" height="60" viewBox="0 0 60 60" fill="none" xmlns="http://www.w3.org/2000/svg">
<path fill-rule="evenodd" clip-rule="evenodd" d="M20.2678 9.49362C20.0281 8.62201 19.9083 8.1862 19.749 7.98606C19.584 7.77863 19.4599 7.68819 19.2119 7.59467C18.9726 7.50443 18.6441 7.51858 17.9872 7.54687C16.2543 7.6215 15.081 7.81513 14.0951 8.31751C12.6839 9.03656 11.5365 10.1839 10.8175 11.5951C10 13.1995 10 15.2997 10 19.5001V43.0001C10 47.2005 10 49.3007 10.8175 50.905C11.5365 52.3162 12.6839 53.4636 14.0951 54.1826C15.6994 55.0001 17.7996 55.0001 22 55.0001H38C42.2004 55.0001 44.3006 55.0001 45.9049 54.1826C47.3161 53.4636 48.4635 52.3162 49.1825 50.905C50 49.3007 50 47.2005 50 43.0001V19.5001C50 15.2997 50 13.1995 49.1825 11.5951C48.4635 10.1839 47.3161 9.03656 45.9049 8.31751C44.919 7.81513 43.7457 7.6215 42.0128 7.54687C41.3559 7.51858 41.0274 7.50443 40.7881 7.59467C40.5401 7.68819 40.416 7.77863 40.251 7.98606C40.0917 8.1862 39.9719 8.62201 39.7322 9.49362C38.8591 12.6681 35.9519 15.0001 32.5 15.0001H27.5C24.0481 15.0001 21.1409 12.6681 20.2678 9.49362ZM32.5 22.5001C31.1193 22.5001 30 23.6193 30 25.0001C30 26.3808 31.1193 27.5001 32.5 27.5001H37.5C38.8807 27.5001 40 26.3808 40 25.0001C40 23.6193 38.8807 22.5001 37.5 22.5001H32.5ZM30 35.0001C30 33.6193 31.1193 32.5001 32.5 32.5001H37.5C38.8807 32.5001 40 33.6193 40 35.0001C40 36.3808 38.8807 37.5001 37.5 37.5001H32.5C31.1193 37.5001 30 36.3808 30 35.0001ZM32.5 42.5001C31.1193 42.5001 30 43.6193 30 45.0001C30 46.3808 31.1193 47.5001 32.5 47.5001H37.5C38.8807 47.5001 40 46.3808 40 45.0001C40 43.6193 38.8807 42.5001 37.5 42.5001H32.5ZM25 25.0001C25 26.3808 23.8807 27.5001 22.5 27.5001C21.1193 27.5001 20 26.3808 20 25.0001C20 23.6193 21.1193 22.5001 22.5 22.5001C23.8807 22.5001 25 23.6193 25 25.0001ZM22.5 37.5001C23.8807 37.5001 25 36.3808 25 35.0001C25 33.6193 23.8807 32.5001 22.5 32.5001C21.1193 32.5001 20 33.6193 20 35.0001C20 36.3808 21.1193 37.5001 22.5 37.5001ZM25 45.0001C25 46.3808 23.8807 47.5001 22.5 47.5001C21.1193 47.5001 20 46.3808 20 45.0001C20 43.6193 21.1193 42.5001 22.5 42.5001C23.8807 42.5001 25 43.6193 25 45.0001Z" fill="#E9DCCF"/>
<path fill-rule="evenodd" clip-rule="evenodd" d="M32.5 5H27.5C26.1193 5 25 6.11929 25 7.5C25 8.88071 26.1193 10 27.5 10H32.5C33.8807 10 35 8.88071 35 7.5C35 6.11929 33.8807 5 32.5 5Z" fill="#E9DCCF"/>
</svg>
