<svg width="52" height="49" viewBox="0 0 52 49" fill="none" xmlns="http://www.w3.org/2000/svg">
<path d="M19.3501 29.3604C18.6663 28.6867 17.8056 28.2694 17.1047 28.2694C16.8935 28.2694 16.6029 28.3096 16.4149 28.5007L11.0121 33.9909C10.7155 34.2926 10.7899 34.8416 10.8352 35.0618C10.9639 35.6873 11.3591 36.361 11.9191 36.912C12.6029 37.5847 13.4637 38.003 14.1645 38.003C14.3757 38.003 14.6653 37.9628 14.8543 37.7718L20.2571 32.2815C20.7357 31.7938 20.4491 30.4414 19.3501 29.3604ZM15.0353 25.8984C14.9066 25.2749 14.5124 24.6012 13.9523 24.0492C13.2585 23.3654 12.3968 22.9481 11.6959 22.9481C11.4848 22.9481 11.1952 22.9883 11.0071 23.1794L5.60436 28.6696C5.30772 28.9713 5.38113 29.5203 5.42738 29.7405C5.55609 30.366 5.95026 31.0397 6.51135 31.5907C7.20518 32.2745 8.06592 32.6918 8.76678 32.6918C8.97794 32.6918 9.26754 32.6516 9.45557 32.4605L14.8583 26.9703C15.155 26.6686 15.0816 26.1196 15.0353 25.8984ZM24.7478 34.6717C24.0641 33.999 23.2043 33.5807 22.5035 33.5807C22.2923 33.5807 22.0017 33.6209 21.8137 33.812L16.4109 39.3022C15.9323 39.7899 16.2178 41.1423 17.3179 42.2243C18.0017 42.897 18.8624 43.3143 19.5633 43.3143C19.7744 43.3143 20.064 43.2741 20.2521 43.083L25.6548 37.5928C26.1335 37.1061 25.8469 35.7526 24.7478 34.6717ZM27.9002 38.8919C27.689 38.8919 27.3994 38.9322 27.2114 39.1232L21.8086 44.6135C21.512 44.9151 21.5864 45.4641 21.6317 45.6854C21.7604 46.3088 22.1555 46.9825 22.7156 47.5356C23.4094 48.2183 24.2702 48.6356 24.9721 48.6356C25.1822 48.6356 25.4728 48.5954 25.6608 48.4043L31.0636 42.9141C31.5422 42.4274 31.2547 41.074 30.1566 39.993C29.4628 39.3092 28.601 38.8919 27.9002 38.8919ZM47.8239 5.86197C46.5047 4.53182 44.9341 3.47734 43.2034 2.75989C41.4728 2.04245 39.6168 1.67636 37.7434 1.68295C35.8685 1.67768 34.0113 2.04432 32.279 2.76165C30.5468 3.47898 28.9741 4.53275 27.6518 5.86197L20.239 13.2859C20.1535 13.37 20.0872 13.4715 20.0445 13.5836C20.0018 13.6956 19.9837 13.8156 19.9915 13.9352C19.9994 14.0549 20.0329 14.1714 20.0898 14.277C20.1467 14.3825 20.2257 14.4746 20.3214 14.5468C21.7402 15.6227 23.7403 15.7605 25.3391 14.8344L34.0551 9.70615C34.3041 9.56575 34.5982 9.52858 34.8743 9.60264C35.1504 9.67669 35.3865 9.85605 35.5318 10.1022C35.6771 10.3484 35.7201 10.6417 35.6516 10.9192C35.5831 11.1967 35.4084 11.4363 35.1652 11.5865L34.3789 12.0491L35.3573 13.0285C35.3673 13.0375 35.3804 13.0395 35.3894 13.0486L46.752 24.4112C47.2146 24.8733 47.5804 25.4229 47.828 26.0281C49.1549 24.7068 50.2068 23.1356 50.9229 21.4054C51.639 19.6751 52.0051 17.8201 51.9999 15.9475C52.0054 14.0738 51.6391 12.2176 50.9222 10.4864C50.2054 8.75523 49.1523 7.18342 47.8239 5.86197Z" fill="#424E3E"/>
<path d="M33.8701 14.6173C33.86 14.6082 33.8469 14.6062 33.8379 14.5972L32.4352 13.1924L26.4401 16.7188C24.0811 18.0864 21.1108 17.8833 19.0042 16.2865C18.6593 16.0263 18.3743 15.6951 18.1686 15.3152C17.9629 14.9353 17.8412 14.5157 17.8118 14.0846C17.7825 13.6536 17.8461 13.2213 17.9984 12.8171C18.1506 12.4128 18.388 12.046 18.6945 11.7414L24.8383 5.58752L24.5749 5.32106C21.7292 2.47639 17.9755 0.906738 14.0066 0.906738C10.2298 0.906738 6.70038 2.35673 4.06989 4.98722C-1.48571 10.5529 -1.33488 19.7546 4.40775 25.4972L5.04024 26.1307L9.45053 21.647C10.0197 21.0698 10.7959 20.7631 11.6959 20.7631C12.987 20.7631 14.3636 21.3896 15.4727 22.4806C16.3576 23.3514 16.9569 24.4042 17.1741 25.457C17.2193 25.6762 17.2284 25.8894 17.2384 26.1005C18.4903 26.1418 19.8096 26.7481 20.8815 27.8029C21.9876 28.8919 22.5789 30.2082 22.6382 31.4128C23.8901 31.454 25.2094 32.0604 26.2803 33.1142C27.3863 34.2032 27.9766 35.5194 28.0369 36.7241C29.2878 36.7653 30.6061 37.3726 31.677 38.4264C32.5719 39.3053 33.125 40.3309 33.3462 41.3254C33.7263 41.1907 34.0651 40.9855 34.3457 40.7C34.8584 40.1855 35.1471 39.4894 35.1492 38.7631C35.1513 38.0368 34.8665 37.339 34.3568 36.8216L34.3537 36.8186L22.9861 25.45C22.8846 25.3488 22.8042 25.2286 22.7493 25.0962C22.6944 24.9639 22.6662 24.822 22.6663 24.6787C22.6656 24.4625 22.7292 24.251 22.8489 24.071C22.9686 23.891 23.1391 23.7506 23.3387 23.6676C23.5383 23.5847 23.7581 23.5629 23.9701 23.605C24.1822 23.6472 24.3769 23.7514 24.5296 23.9044L35.8942 35.269L35.9033 35.2791C36.4189 35.7896 37.1154 36.0755 37.841 36.0746C38.5665 36.0736 39.2623 35.7859 39.7766 35.2741C40.2955 34.7562 40.581 34.0664 40.581 33.3334C40.581 32.6003 40.2955 31.9115 39.7766 31.3927L28.41 20.0291C28.3086 19.9277 28.2281 19.8073 28.1732 19.6748C28.1184 19.5423 28.0901 19.4003 28.0901 19.2568C28.0901 19.1134 28.1184 18.9714 28.1732 18.8389C28.2281 18.7064 28.3086 18.586 28.41 18.4846C28.5114 18.3832 28.6318 18.3027 28.7643 18.2478C28.8968 18.1929 29.0388 18.1647 29.1822 18.1647C29.3257 18.1647 29.4677 18.1929 29.6002 18.2478C29.7327 18.3027 29.8531 18.3832 29.9545 18.4846L41.3171 29.8472C42.3558 30.8869 44.1678 30.8879 45.2075 29.8472C45.7274 29.3273 46.013 28.6365 46.013 27.9015C46.013 27.1664 45.7264 26.4756 45.2075 25.9557L33.8701 14.6173Z" fill="#424E3E"/>
</svg>
