<svg width="62" height="62" viewBox="0 0 62 62" fill="none" xmlns="http://www.w3.org/2000/svg">
<path d="M7.75 44.6263V24.2833C7.75 18.4961 7.75 15.6025 8.87627 13.3921C9.86696 11.4478 11.4478 9.86696 13.3921 8.87627C15.6025 7.75 18.4961 7.75 24.2833 7.75H37.7167C43.5039 7.75 46.3975 7.75 48.6079 8.87627C50.5522 9.86696 52.133 11.4478 53.1237 13.3921C54.25 15.6025 54.25 18.4961 54.25 24.2833V27.3833C54.25 33.1705 54.25 36.0641 53.1237 38.2746C52.133 40.2189 50.5522 41.7997 48.6079 42.7904C46.3975 43.9167 43.5039 43.9167 37.7167 43.9167H26.7612C25.4663 43.9167 24.8189 43.9167 24.2114 44.066C23.6728 44.1983 23.1591 44.4165 22.6899 44.7122C22.1607 45.0457 21.7111 45.5116 20.8121 46.4435L18.4118 48.9312C15.0792 52.3854 13.4128 54.1125 11.9774 54.2436C10.7324 54.3573 9.50901 53.8633 8.69198 52.917C7.75 51.826 7.75 49.4261 7.75 44.6263Z" fill="#E9DCCF"/>
</svg>
