<svg width="53" height="53" viewBox="0 0 53 53" fill="none" xmlns="http://www.w3.org/2000/svg">
<path d="M34.3796 6.62501C33.8222 6.62494 33.2794 6.62488 32.8198 6.66243C32.3149 6.70368 31.7193 6.80099 31.1199 7.1064C30.2888 7.52984 29.6132 8.2055 29.1897 9.03655C28.8843 9.63595 28.787 10.2316 28.7458 10.7364C28.7082 11.1961 28.7083 11.7389 28.7083 12.2962V23.0371C28.7083 23.5945 28.7082 24.1373 28.7458 24.5969C28.787 25.1017 28.8843 25.6974 29.1897 26.2968C29.6132 27.1279 30.2888 27.8035 31.1199 28.227C31.7193 28.5324 32.3149 28.6297 32.8198 28.6709C33.2794 28.7085 33.8223 28.7084 34.3796 28.7083H40.7038C41.2611 28.7084 41.8039 28.7085 42.2636 28.6709C42.7684 28.6297 43.3641 28.5324 43.9635 28.227C44.7945 27.8035 45.4702 27.1279 45.8936 26.2968C46.199 25.6974 46.2963 25.1017 46.3376 24.5969C46.3751 24.1373 46.3751 23.5945 46.375 23.0371V12.2962C46.3751 11.7389 46.3751 11.1961 46.3376 10.7364C46.2963 10.2316 46.199 9.63595 45.8936 9.03655C45.4702 8.2055 44.7945 7.52984 43.9635 7.1064C43.3641 6.80099 42.7684 6.70368 42.2636 6.66243C41.8039 6.62488 41.2612 6.62494 40.7038 6.62501L34.3796 6.62501Z" fill="#E9DCCF"/>
<path d="M12.2962 24.2917C11.7389 24.2916 11.1961 24.2915 10.7364 24.3291C10.2316 24.3703 9.63595 24.4677 9.03655 24.7731C8.2055 25.1965 7.52984 25.8722 7.1064 26.7032C6.80099 27.3026 6.70368 27.8983 6.66243 28.4031C6.62488 28.8628 6.62494 29.4055 6.62501 29.9629L6.62501 40.7038C6.62494 41.2611 6.62488 41.8039 6.66243 42.2636C6.70368 42.7684 6.80099 43.3641 7.1064 43.9635C7.52984 44.7945 8.2055 45.4702 9.03655 45.8936C9.63595 46.199 10.2316 46.2963 10.7364 46.3376C11.1961 46.3751 11.7389 46.3751 12.2963 46.375H18.6204C19.1778 46.3751 19.7206 46.3751 20.1803 46.3376C20.6851 46.2963 21.2807 46.199 21.8801 45.8936C22.7112 45.4702 23.3869 44.7945 23.8103 43.9635C24.1157 43.3641 24.213 42.7684 24.2543 42.2636C24.2918 41.8039 24.2917 41.2612 24.2917 40.7039V29.9629C24.2917 29.4056 24.2918 28.8628 24.2543 28.4031C24.213 27.8983 24.1157 27.3026 23.8103 26.7032C23.3869 25.8722 22.7112 25.1965 21.8801 24.7731C21.2807 24.4677 20.6851 24.3703 20.1803 24.3291C19.7206 24.2915 19.1778 24.2916 18.6205 24.2917H12.2962Z" fill="#E9DCCF"/>
<path d="M12.2962 6.62501C11.7389 6.62494 11.1961 6.62488 10.7364 6.66243C10.2316 6.70368 9.63595 6.80099 9.03655 7.1064C8.2055 7.52984 7.52984 8.2055 7.1064 9.03655C6.80099 9.63595 6.70368 10.2316 6.66243 10.7364C6.62488 11.1961 6.62494 11.7389 6.62501 12.2962L6.62501 14.2038C6.62494 14.7611 6.62488 15.3039 6.66243 15.7636C6.70368 16.2684 6.80099 16.8641 7.1064 17.4635C7.52984 18.2945 8.2055 18.9702 9.03655 19.3936C9.63595 19.699 10.2316 19.7963 10.7364 19.8376C11.1961 19.8751 11.7389 19.8751 12.2962 19.875H18.6205C19.1778 19.8751 19.7206 19.8751 20.1803 19.8376C20.6851 19.7963 21.2807 19.699 21.8801 19.3936C22.7112 18.9702 23.3869 18.2945 23.8103 17.4635C24.1157 16.8641 24.213 16.2684 24.2543 15.7636C24.2918 15.3039 24.2917 14.7612 24.2917 14.2039V12.2962C24.2917 11.7389 24.2918 11.1961 24.2543 10.7364C24.213 10.2316 24.1157 9.63595 23.8103 9.03655C23.3869 8.2055 22.7112 7.52984 21.8801 7.1064C21.2807 6.80099 20.6851 6.70368 20.1803 6.66243C19.7206 6.62488 19.1778 6.62494 18.6205 6.62501L12.2962 6.62501Z" fill="#E9DCCF"/>
<path d="M34.3796 33.125C33.8222 33.1249 33.2794 33.1249 32.8198 33.1624C32.3149 33.2037 31.7193 33.301 31.1199 33.6064C30.2888 34.0298 29.6132 34.7055 29.1897 35.5366C28.8843 36.136 28.787 36.7316 28.7458 37.2364C28.7082 37.6961 28.7083 38.2389 28.7083 38.7962V40.7038C28.7083 41.2611 28.7082 41.8039 28.7458 42.2636C28.787 42.7684 28.8843 43.3641 29.1897 43.9635C29.6132 44.7945 30.2888 45.4702 31.1199 45.8936C31.7193 46.199 32.3149 46.2963 32.8198 46.3376C33.2794 46.3751 33.8222 46.3751 34.3796 46.375H40.7038C41.2611 46.3751 41.8039 46.3751 42.2636 46.3376C42.7684 46.2963 43.3641 46.199 43.9635 45.8936C44.7945 45.4702 45.4702 44.7945 45.8936 43.9635C46.199 43.3641 46.2963 42.7684 46.3376 42.2636C46.3751 41.8039 46.3751 41.2611 46.375 40.7038V38.7962C46.3751 38.2389 46.3751 37.6961 46.3376 37.2364C46.2963 36.7316 46.199 36.136 45.8936 35.5366C45.4702 34.7055 44.7945 34.0298 43.9635 33.6064C43.3641 33.301 42.7684 33.2037 42.2636 33.1624C41.8039 33.1249 41.2611 33.1249 40.7038 33.125H34.3796Z" fill="#E9DCCF"/>
</svg>
