<svg width="38" height="39" viewBox="0 0 38 39" fill="none" xmlns="http://www.w3.org/2000/svg">
<path d="M22.3282 19.6199C22.3282 21.4363 20.8557 22.9088 19.0394 22.9088C17.223 22.9088 15.7505 21.4363 15.7505 19.6199C15.7505 17.8036 17.223 16.3311 19.0394 16.3311C20.8557 16.3311 22.3282 17.8036 22.3282 19.6199Z" fill="#424E3E"/>
<path d="M24.5938 9.68066H13.4848C11.0666 9.68066 9.09961 11.6477 9.09961 14.0658V25.1749C9.09961 27.593 11.0666 29.56 13.4848 29.56H24.5938C27.0119 29.56 28.979 27.593 28.979 25.1749V14.0658C28.979 11.6477 27.0119 9.68066 24.5938 9.68066ZM19.0393 25.1018C16.0168 25.1018 13.5579 22.6428 13.5579 19.6204C13.5579 16.5979 16.0168 14.1389 19.0393 14.1389C22.0618 14.1389 24.5207 16.5979 24.5207 19.6204C24.5207 22.6428 22.0618 25.1018 19.0393 25.1018ZM25.3247 14.4312C24.7192 14.4312 24.2284 13.9405 24.2284 13.335C24.2284 12.7294 24.7192 12.2387 25.3247 12.2387C25.9302 12.2387 26.421 12.7294 26.421 13.335C26.421 13.9405 25.9302 14.4312 25.3247 14.4312Z" fill="#424E3E"/>
<path d="M27.8825 0.910156H10.1957C4.75533 0.910156 0.329102 5.33646 0.329102 10.7768V28.4636C0.329102 33.9039 4.75541 38.3302 10.1957 38.3302H27.8825C33.3229 38.3302 37.7491 33.9039 37.7491 28.4636V10.7768C37.7491 5.33639 33.3228 0.910156 27.8825 0.910156ZM31.1714 25.1747C31.1714 28.8016 28.2205 31.7524 24.5936 31.7524H13.4846C9.85768 31.7524 6.90684 28.8016 6.90684 25.1747V14.0656C6.90684 10.4387 9.85768 7.48789 13.4846 7.48789H24.5936C28.2205 7.48789 31.1714 10.4387 31.1714 14.0656V25.1747Z" fill="#424E3E"/>
</svg>
