<svg width="53" height="41" viewBox="0 0 53 41" fill="none" xmlns="http://www.w3.org/2000/svg">
<path d="M6.12094 31.5952C5.14645 30.6207 4.28103 29.586 3.5123 28.5194C2.17727 29.3559 1.18754 30.1397 0.705422 30.5424C0.611802 30.6204 0.549383 30.7295 0.529562 30.8498C0.509741 30.9701 0.533841 31.0935 0.597461 31.1974C1.59938 32.8388 5.95854 39.3884 12.3026 40.4343C15.1073 40.8968 17.8892 40.2155 20.2484 39.2053C16.0382 38.1274 10.48 35.9544 6.12094 31.5952ZM49.5332 28.5194C48.7644 29.5862 47.899 30.6208 46.9245 31.5953C42.5653 35.9545 37.0072 38.1276 32.797 39.2053C35.1563 40.2155 37.9381 40.8968 40.7428 40.4343C47.0869 39.3885 51.446 32.8389 52.448 31.1974C52.5116 31.0935 52.5357 30.9701 52.5159 30.8498C52.496 30.7295 52.4336 30.6204 52.34 30.5424C51.858 30.1397 50.8683 29.3558 49.5332 28.5194ZM16.7284 12.8483C17.2811 10.6441 18.0719 8.60852 18.9363 6.80629C16.4867 4.53911 14.1862 3.08118 13.1894 2.49425C13.1253 2.45642 13.0536 2.43316 12.9795 2.42612C12.9054 2.41908 12.8307 2.42843 12.7606 2.4535C12.6905 2.47857 12.6268 2.51876 12.5739 2.57121C12.5211 2.62365 12.4805 2.68708 12.4549 2.75699C12.0482 3.86565 11.1671 6.53806 10.7193 9.94417C12.6747 10.657 14.7371 11.6008 16.7284 12.8483ZM42.3261 9.94417C41.8784 6.53806 40.9972 3.86565 40.5905 2.75699C40.565 2.68707 40.5243 2.62363 40.4715 2.57117C40.4187 2.51871 40.355 2.47852 40.2849 2.45344C40.2148 2.42837 40.14 2.41903 40.0659 2.42608C39.9918 2.43313 39.9202 2.45641 39.856 2.49425C38.8592 3.08108 36.5588 4.53911 34.1091 6.80629C34.9735 8.60852 35.7642 10.644 36.317 12.8483C38.3083 11.6008 40.3708 10.657 42.3261 9.94417ZM15.9341 19.0769C15.9341 18.0631 16.0005 17.0686 16.1201 16.0972C10.1925 11.9578 3.16191 11.0356 1.08557 10.8477C1.01021 10.8408 0.934264 10.8506 0.863107 10.8763C0.79195 10.9021 0.727327 10.9431 0.67382 10.9966C0.620312 11.0501 0.57923 11.1148 0.553484 11.1859C0.527739 11.2571 0.517961 11.333 0.524844 11.4084C0.745945 13.8506 1.98166 23.1471 8.27528 29.4407C12.4606 33.626 17.9732 35.5742 21.9155 36.4749C19.4367 32.8788 15.9341 26.4849 15.9341 19.0769ZM51.9599 10.8477C49.8835 11.0356 42.8529 11.9578 36.9254 16.0973C37.045 17.0686 37.1113 18.0631 37.1113 19.0769C37.1113 26.485 33.6086 32.8789 31.1298 36.4749C35.0721 35.5741 40.5848 33.626 44.7701 29.4406C51.0638 23.147 52.2996 13.8505 52.5206 11.4083C52.5274 11.3329 52.5177 11.257 52.4919 11.1859C52.4662 11.1147 52.4251 11.0501 52.3716 10.9966C52.3181 10.9431 52.2534 10.902 52.1823 10.8763C52.1111 10.8506 52.0352 10.8408 51.9599 10.8477ZM34.0644 19.0769C34.0644 27.8322 28.4577 35.1581 26.9127 37.0106C26.8651 37.0678 26.8055 37.1138 26.738 37.1454C26.6706 37.177 26.5971 37.1934 26.5227 37.1934C26.4482 37.1934 26.3747 37.177 26.3073 37.1454C26.2399 37.1138 26.1802 37.0678 26.1326 37.0106C24.5876 35.1581 18.9809 27.8322 18.9809 19.0769C18.9809 10.3216 24.5877 2.99577 26.1327 1.14327C26.1803 1.08605 26.24 1.04001 26.3074 1.00842C26.3748 0.976827 26.4483 0.960449 26.5228 0.960449C26.5972 0.960449 26.6707 0.976827 26.7381 1.00842C26.8056 1.04001 26.8652 1.08605 26.9128 1.14327C28.4577 2.99577 34.0644 10.3217 34.0644 19.0769Z" fill="#424E3E"/>
</svg>
