<svg width="75" height="58" viewBox="0 0 75 58" fill="none" xmlns="http://www.w3.org/2000/svg">
<path d="M6.61476 52.9069C2.30651 48.3309 -0.00655237 43.1987 -0.00655164 34.8792C-0.00655036 20.2395 10.2663 7.11817 25.2155 0.630702L28.9507 6.39455C15.0012 13.9403 12.274 23.7321 11.1823 29.9059C13.4285 28.7431 16.369 28.3373 19.2551 28.605C26.8008 29.3036 32.7487 35.4982 32.7487 43.1987C32.7487 47.0814 31.2063 50.805 28.4608 53.5505C25.7153 56.296 21.9917 57.8384 18.109 57.8384C13.6209 57.8384 9.3252 55.7888 6.61476 52.9069ZM48.4424 52.9069C44.1342 48.331 41.8211 43.1987 41.8211 34.8792C41.8211 20.2395 52.094 7.11817 67.0432 0.630706L70.7784 6.39456C56.8289 13.9403 54.1017 23.7321 53.0142 29.9059C55.2603 28.7431 58.2008 28.3373 61.0827 28.605C68.6284 29.2994 74.5721 35.4941 74.5721 43.1987C74.5721 47.0814 73.0298 50.805 70.2843 53.5505C67.5388 56.296 63.8152 57.8384 59.9325 57.8384C55.4444 57.8384 51.1487 55.7888 48.4382 52.9069" fill="#9F8B72"/>
</svg>
