<svg width="40" height="29" viewBox="0 0 40 29" fill="none" xmlns="http://www.w3.org/2000/svg">
<path d="M38.9444 5.21203C38.4899 3.5226 37.1579 2.19087 35.4687 1.73594C32.3828 0.891602 20.0389 0.891602 20.0389 0.891602C20.0389 0.891602 7.69541 0.891602 4.60949 1.70397C2.95278 2.15839 1.58832 3.52291 1.13389 5.21203C0.321777 8.29771 0.321777 14.6971 0.321777 14.6971C0.321777 14.6971 0.321777 21.1287 1.13389 24.1821C1.58875 25.8712 2.92031 27.203 4.60973 27.6579C7.72788 28.5025 20.0393 28.5025 20.0393 28.5025C20.0393 28.5025 32.3828 28.5025 35.4687 27.6901C37.1581 27.2354 38.4899 25.9037 38.9448 24.2145C39.7567 21.1286 39.7567 14.7295 39.7567 14.7295C39.7567 14.7295 39.7891 8.29764 38.9444 5.21203ZM16.1088 20.609V8.78504L26.3734 14.697L16.1088 20.609Z" fill="#424E3E"/>
</svg>
