<svg width="79" height="53" viewBox="0 0 79 53" fill="none" xmlns="http://www.w3.org/2000/svg">
<path fill-rule="evenodd" clip-rule="evenodd" d="M19.875 35.3333C16.2162 35.3333 13.25 38.2994 13.25 41.9583C13.25 43.1779 14.2387 44.1666 15.4584 44.1666H37.5417C38.7613 44.1666 39.75 43.1779 39.75 41.9583C39.75 38.2994 36.7839 35.3333 33.125 35.3333H19.875ZM8.83337 41.9583C8.83337 35.8601 13.7769 30.9166 19.875 30.9166H33.125C39.2232 30.9166 44.1667 35.8601 44.1667 41.9583C44.1667 45.6172 41.2006 48.5833 37.5417 48.5833H15.4584C11.7995 48.5833 8.83337 45.6172 8.83337 41.9583Z" fill="#E9DCCF"/>
<path fill-rule="evenodd" clip-rule="evenodd" d="M26.5 8.83329C22.8412 8.83329 19.875 11.7994 19.875 15.4583C19.875 19.1172 22.8412 22.0833 26.5 22.0833C30.1589 22.0833 33.125 19.1172 33.125 15.4583C33.125 11.7994 30.1589 8.83329 26.5 8.83329ZM15.4584 15.4583C15.4584 9.36015 20.4019 4.41663 26.5 4.41663C32.5982 4.41663 37.5417 9.36015 37.5417 15.4583C37.5417 21.5564 32.5982 26.5 26.5 26.5C20.4019 26.5 15.4584 21.5564 15.4584 15.4583Z" fill="#E9DCCF"/>
<path d="M45.875 30.9166C39.7769 30.9166 34.8334 35.8601 34.8334 41.9583C34.8334 45.6172 37.7995 48.5833 41.4584 48.5833H63.5417C67.2006 48.5833 70.1667 45.6172 70.1667 41.9583C70.1667 35.8601 65.2232 30.9166 59.125 30.9166H45.875Z" fill="#E9DCCF"/>
<path d="M52.5 4.41663C46.4019 4.41663 41.4584 9.36015 41.4584 15.4583C41.4584 21.5564 46.4019 26.5 52.5 26.5C58.5982 26.5 63.5417 21.5564 63.5417 15.4583C63.5417 9.36015 58.5982 4.41663 52.5 4.41663Z" fill="#E9DCCF"/>
</svg>
