<svg width="59" height="59" viewBox="0 0 59 59" fill="none" xmlns="http://www.w3.org/2000/svg">
<path fill-rule="evenodd" clip-rule="evenodd" d="M22.125 9.83333C22.125 8.47563 21.0244 7.375 19.6667 7.375C18.309 7.375 17.2083 8.47563 17.2083 9.83333V12.2917C16.0799 12.2924 15.096 12.2994 14.2706 12.3668C13.2987 12.4462 12.332 12.6215 11.4018 13.0955C10.0141 13.8026 8.8859 14.9308 8.17884 16.3185C7.70488 17.2487 7.52956 18.2153 7.45016 19.1872C7.4085 19.6971 7.38992 20.2675 7.38164 20.895C7.37268 21.5741 7.92585 22.125 8.60499 22.125H50.395C51.0742 22.125 51.6273 21.5741 51.6184 20.895C51.6101 20.2675 51.5915 19.6971 51.5499 19.1872C51.4705 18.2153 51.2951 17.2487 50.8212 16.3185C50.1141 14.9308 48.9859 13.8026 47.5982 13.0955C46.668 12.6215 45.7013 12.4462 44.7295 12.3668C43.904 12.2994 42.9201 12.2924 41.7917 12.2917V9.83333C41.7917 8.47563 40.691 7.375 39.3333 7.375C37.9756 7.375 36.875 8.47563 36.875 9.83333V12.2917H22.125V9.83333ZM51.625 28.2708C51.625 27.592 51.0747 27.0417 50.3958 27.0417H8.60417C7.92532 27.0417 7.375 27.592 7.375 28.2708V41.3948C7.37496 42.6907 7.37493 43.8087 7.45016 44.7294C7.52956 45.7013 7.70488 46.668 8.17884 47.5982C8.8859 48.9859 10.0141 50.1141 11.4018 50.8212C12.332 51.2951 13.2987 51.4704 14.2706 51.5499C15.1913 51.6251 16.3095 51.625 17.6053 51.625H41.3951C42.6909 51.625 43.8087 51.6251 44.7295 51.5499C45.7013 51.4704 46.668 51.2951 47.5982 50.8212C48.9859 50.1141 50.1141 48.9859 50.8212 47.5982C51.2951 46.668 51.4705 45.7013 51.5499 44.7294C51.6251 43.8086 51.6251 42.6907 51.625 41.3948L51.625 28.2708Z" fill="#E9DCCF"/>
</svg>
