<svg width="318" height="47" viewBox="0 0 318 47" fill="none" xmlns="http://www.w3.org/2000/svg">
<path opacity="0.08" d="M-63.5465 46.3694V1.56938H-56.6985L-28.6025 36.0654H-31.9945V1.56938H-23.7385V46.3694H-30.5865L-58.6825 11.8734H-55.2905V46.3694H-63.5465ZM7.53 47.0094C1.386 47.0094 -3.43533 45.2814 -6.934 41.8254C-10.39 38.3694 -12.118 33.3774 -12.118 26.8494V1.56938H-3.798V26.5294C-3.798 31.1374 -2.81667 34.4867 -0.854 36.5774C1.15133 38.6681 3.96733 39.7134 7.594 39.7134C11.2207 39.7134 14.0153 38.6681 15.978 36.5774C17.9407 34.4867 18.922 31.1374 18.922 26.5294V1.56938H27.114V26.8494C27.114 33.3774 25.3647 38.3694 21.866 41.8254C18.41 45.2814 13.6313 47.0094 7.53 47.0094ZM47.0415 46.3694V8.60938H32.1935V1.56938H70.2095V8.60938H55.3615V46.3694H47.0415ZM76.4535 46.3694V1.56938H94.8855C98.8535 1.56938 102.246 2.20938 105.062 3.48938C107.92 4.76938 110.118 6.60405 111.654 8.99338C113.19 11.3827 113.958 14.2201 113.958 17.5054C113.958 20.7907 113.19 23.6281 111.654 26.0174C110.118 28.3641 107.92 30.1774 105.062 31.4574C102.246 32.6947 98.8535 33.3134 94.8855 33.3134H81.0615L84.7735 29.5374V46.3694H76.4535ZM105.766 46.3694L94.4375 30.1134H103.333L114.726 46.3694H105.766ZM84.7735 30.4334L81.0615 26.4654H94.5015C98.1708 26.4654 100.923 25.6761 102.757 24.0974C104.635 22.5187 105.574 20.3214 105.574 17.5054C105.574 14.6467 104.635 12.4494 102.757 10.9134C100.923 9.37738 98.1708 8.60938 94.5015 8.60938H81.0615L84.7735 4.51338V30.4334ZM123.266 46.3694V1.56938H131.586V46.3694H123.266ZM152.792 46.3694V8.60938H137.944V1.56938H175.96V8.60938H161.112V46.3694H152.792ZM182.204 46.3694V1.56938H190.524V46.3694H182.204ZM223.633 47.0094C220.134 47.0094 216.913 46.4334 213.969 45.2814C211.025 44.1294 208.465 42.5294 206.289 40.4814C204.113 38.3907 202.428 35.9587 201.233 33.1854C200.038 30.3694 199.441 27.2974 199.441 23.9694C199.441 20.6414 200.038 17.5907 201.233 14.8174C202.428 12.0014 204.113 9.56938 206.289 7.52138C208.465 5.43072 211.025 3.80938 213.969 2.65738C216.913 1.50538 220.113 0.929382 223.569 0.929382C227.068 0.929382 230.268 1.50538 233.169 2.65738C236.113 3.80938 238.673 5.43072 240.849 7.52138C243.025 9.56938 244.71 12.0014 245.905 14.8174C247.1 17.5907 247.697 20.6414 247.697 23.9694C247.697 27.2974 247.1 30.3694 245.905 33.1854C244.71 36.0014 243.025 38.4334 240.849 40.4814C238.673 42.5294 236.113 44.1294 233.169 45.2814C230.268 46.4334 227.089 47.0094 223.633 47.0094ZM223.569 39.7134C225.83 39.7134 227.921 39.3294 229.841 38.5614C231.761 37.7934 233.425 36.7054 234.833 35.2974C236.241 33.8467 237.329 32.1827 238.097 30.3054C238.908 28.3854 239.313 26.2734 239.313 23.9694C239.313 21.6654 238.908 19.5747 238.097 17.6974C237.329 15.7774 236.241 14.1134 234.833 12.7054C233.425 11.2547 231.761 10.1454 229.841 9.37738C227.921 8.60938 225.83 8.22538 223.569 8.22538C221.308 8.22538 219.217 8.60938 217.297 9.37738C215.42 10.1454 213.756 11.2547 212.305 12.7054C210.897 14.1134 209.788 15.7774 208.977 17.6974C208.209 19.5747 207.825 21.6654 207.825 23.9694C207.825 26.2307 208.209 28.3214 208.977 30.2414C209.788 32.1614 210.897 33.8467 212.305 35.2974C213.713 36.7054 215.377 37.7934 217.297 38.5614C219.217 39.3294 221.308 39.7134 223.569 39.7134ZM256.516 46.3694V1.56938H263.364L291.46 36.0654H288.068V1.56938H296.324V46.3694H289.476L261.38 11.8734H264.772V46.3694H256.516ZM301.992 46.3694L322.153 1.56938H330.345L350.569 46.3694H341.865L324.521 5.98538H327.849L310.569 46.3694H301.992ZM311.273 36.0014L313.513 29.4734H337.705L339.944 36.0014H311.273ZM356.266 46.3694V1.56938H364.586V39.3294H388.01V46.3694H356.266Z" fill="#424E3E"/>
</svg>
