<svg width="166" height="46" viewBox="0 0 166 46" fill="none" xmlns="http://www.w3.org/2000/svg">
<path opacity="0.08" d="M0.42225 45.3694V0.569382H18.8543C22.8223 0.569382 26.2143 1.20938 29.0303 2.48938C31.8889 3.76938 34.0863 5.60405 35.6223 7.99338C37.1583 10.3827 37.9263 13.2201 37.9263 16.5054C37.9263 19.7907 37.1583 22.6281 35.6223 25.0174C34.0863 27.3641 31.8889 29.1774 29.0303 30.4574C26.2143 31.6947 22.8223 32.3134 18.8543 32.3134H5.03025L8.74225 28.5374V45.3694H0.42225ZM29.7343 45.3694L18.4063 29.1134H27.3022L38.6943 45.3694H29.7343ZM8.74225 29.4334L5.03025 25.4654H18.4703C22.1396 25.4654 24.8916 24.6761 26.7262 23.0974C28.6036 21.5187 29.5423 19.3214 29.5423 16.5054C29.5423 13.6467 28.6036 11.4494 26.7262 9.91338C24.8916 8.37738 22.1396 7.60938 18.4703 7.60938H5.03025L8.74225 3.51338V29.4334ZM54.9148 19.1934H77.1868V26.0414H54.9148V19.1934ZM55.5548 38.3934H80.8348V45.3694H47.2348V0.569382H79.9388V7.54538H55.5548V38.3934ZM90.1098 45.3694V0.569382H98.4298V45.3694H90.1098ZM117.971 34.8094L117.523 24.9534L141.011 0.569382H150.355L130.835 21.3054L126.227 26.3614L117.971 34.8094ZM110.547 45.3694V0.569382H118.867V45.3694H110.547ZM141.779 45.3694L124.627 24.9534L130.131 18.8734L151.507 45.3694H141.779ZM157.172 45.3694V0.569382H165.492V45.3694H157.172Z" fill="#424E3E"/>
</svg>
