<svg width="183" height="140" viewBox="0 0 183 140" fill="none" xmlns="http://www.w3.org/2000/svg">
<path d="M166.307 12.35C176.81 23.5057 182.449 36.0175 182.449 56.2996C182.449 91.9895 157.405 123.978 120.961 139.794L111.855 125.742C145.862 107.346 152.511 83.4749 155.172 68.4239C149.696 71.2587 142.528 72.2479 135.492 71.5952C117.096 69.8923 102.596 54.7904 102.596 36.0175C102.596 26.552 106.356 17.4741 113.049 10.781C119.742 4.08781 128.82 0.327637 138.286 0.327637C149.227 0.327637 159.7 5.32422 166.307 12.35ZM64.3362 12.35C74.8393 23.5057 80.4783 36.0175 80.4783 56.2996C80.4783 91.9895 55.4342 123.978 18.9897 139.794L9.88367 125.742C43.891 107.346 50.5396 83.4749 53.1908 68.4239C47.715 71.2587 40.5464 72.2479 33.5206 71.5952C15.125 69.9025 0.634888 54.8006 0.634888 36.0175C0.634888 26.552 4.39506 17.4741 11.0882 10.781C17.7814 4.08781 26.8592 0.327637 36.3248 0.327637C47.2663 0.327637 57.7387 5.32422 64.3464 12.35" fill="#F6F4F1"/>
</svg>
