<svg width="53" height="53" viewBox="0 0 53 53" fill="none" xmlns="http://www.w3.org/2000/svg">
<path d="M9.28784 35.8103V37.2464L10.7219 37.3307C17.3525 37.7224 22.7799 33.5919 26.0457 27.7726C29.2776 33.5316 34.686 37.7233 41.3694 37.3307L42.8035 37.2464V35.8103C42.8035 26.4442 38.4322 23.3049 34.9202 20.7821C34.0325 20.1453 33.2231 19.5623 32.5507 18.9285C30.6779 20.9892 28.4293 22.0993 26.0457 22.0993C23.664 22.0993 21.4164 20.9892 19.5436 18.9265C18.8703 19.5613 18.0598 20.1442 17.1711 20.7821C13.6591 23.3049 9.28784 26.4442 9.28784 35.8103Z" fill="#424E3E"/>
<path d="M26.0457 19.0525C30.517 19.0525 33.6628 12.3998 33.6628 8.38843C33.6628 4.18831 30.2458 0.77124 26.0457 0.77124C21.8455 0.77124 18.4285 4.18831 18.4285 8.38843C18.4285 12.404 21.5859 19.0525 26.0457 19.0525ZM48.9988 26.6697C48.9988 29.6727 48.4257 32.5911 47.2955 35.3435L50.114 36.5008C51.3959 33.3793 52.0457 30.0716 52.0457 26.6697C52.0457 17.257 46.9267 8.57205 38.6864 4.00408L37.2092 6.66887C44.4813 10.7001 48.9988 18.364 48.9988 26.6697ZM4.79583 35.3435C3.66565 32.5911 3.09253 29.6727 3.09253 26.6697C3.09253 18.364 7.61003 10.7001 14.8821 6.66887L13.4049 4.00408C5.16461 8.57205 0.0456543 17.257 0.0456543 26.6697C0.0456543 30.0716 0.695553 33.3793 1.97727 36.5008L4.79583 35.3435ZM49.0987 40.8048C48.8205 40.8388 35.4221 37.6571 26.0469 48.7725C16.6001 37.5296 3.3766 40.8517 2.99259 40.8048C3.00336 40.8282 3.27565 46.1428 7.07713 49.7244H0.0456543V52.7712H52.0457V49.7244H44.9313C48.9034 46.1426 48.9055 41.5112 49.0987 40.8048Z" fill="#424E3E"/>
<path d="M26.0457 33.0283C23.7483 35.7387 21.5313 37.7277 18.2172 39.0845C18.1847 39.1495 18.1512 39.2135 18.1167 39.2775C20.789 40.3249 23.6028 42.0626 26.0538 44.3546C28.5181 42.0675 31.4036 40.313 33.996 39.3191C33.9554 39.2419 33.9137 39.1637 33.8741 39.0845C30.5799 37.7358 28.3545 35.7566 26.0457 33.0283Z" fill="#424E3E"/>
</svg>
