<svg width="153" height="156" viewBox="0 0 153 156" fill="none" xmlns="http://www.w3.org/2000/svg">
<path opacity="0.2" d="M81.1651 49.077L81.3486 50.8031L82.1114 49.2439L101.439 9.73723L90.8504 52.4246L90.4325 54.1094L91.6826 52.9051L123.357 22.3914L98.8068 58.8829L97.8378 60.3232L99.4244 59.619L139.625 41.7788L104.074 67.673L102.671 68.695L104.403 68.576L148.281 65.5609L106.018 77.7346L104.35 78.2151L106.018 78.6955L148.281 90.8692L104.403 87.8541L102.671 87.7351L104.074 88.7571L139.625 114.651L99.4244 96.8111L97.8378 96.107L98.8068 97.5472L123.357 134.039L91.6826 103.525L90.4325 102.321L90.8504 104.006L101.439 146.693L82.1114 107.186L81.3486 105.627L81.1651 107.353L76.5151 151.088L71.8652 107.353L71.6816 105.627L70.9188 107.186L51.5912 146.693L62.1798 104.006L62.5977 102.321L61.3476 103.525L29.6735 134.039L54.2235 97.5472L55.1924 96.107L53.6058 96.8111L13.4056 114.651L48.9558 88.7571L50.3589 87.7351L48.6272 87.8541L4.74961 90.8692L47.0123 78.6955L48.6803 78.2151L47.0123 77.7346L4.74963 65.5609L48.6272 68.576L50.3589 68.695L48.9558 67.673L13.4056 41.7788L53.6058 59.619L55.1924 60.3232L54.2235 58.8829L29.6735 22.3914L61.3476 52.9051L62.5977 54.1094L62.1798 52.4246L51.5912 9.73723L70.9188 49.2439L71.6816 50.8031L71.8652 49.077L76.5151 5.3425L81.1651 49.077Z" stroke="white"/>
</svg>
