<svg width="194" height="47" viewBox="0 0 194 47" fill="none" xmlns="http://www.w3.org/2000/svg">
<path opacity="0.08" d="M18.2115 46.3694V28.6414L20.0675 33.7614L0.6115 1.56938H9.5075L25.1235 27.4894H20.1315L35.8755 1.56938H44.0675L24.6115 33.7614L26.5315 28.6414V46.3694H18.2115ZM68.5705 47.0094C65.0718 47.0094 61.8505 46.4334 58.9065 45.2814C55.9625 44.1294 53.4025 42.5294 51.2265 40.4814C49.0505 38.3907 47.3652 35.9587 46.1705 33.1854C44.9758 30.3694 44.3785 27.2974 44.3785 23.9694C44.3785 20.6414 44.9758 17.5907 46.1705 14.8174C47.3652 12.0014 49.0505 9.56938 51.2265 7.52138C53.4025 5.43072 55.9625 3.80938 58.9065 2.65738C61.8505 1.50538 65.0505 0.929382 68.5065 0.929382C72.0052 0.929382 75.2052 1.50538 78.1065 2.65738C81.0505 3.80938 83.6105 5.43072 85.7865 7.52138C87.9625 9.56938 89.6478 12.0014 90.8425 14.8174C92.0372 17.5907 92.6345 20.6414 92.6345 23.9694C92.6345 27.2974 92.0372 30.3694 90.8425 33.1854C89.6478 36.0014 87.9625 38.4334 85.7865 40.4814C83.6105 42.5294 81.0505 44.1294 78.1065 45.2814C75.2052 46.4334 72.0265 47.0094 68.5705 47.0094ZM68.5065 39.7134C70.7678 39.7134 72.8585 39.3294 74.7785 38.5614C76.6985 37.7934 78.3625 36.7054 79.7705 35.2974C81.1785 33.8467 82.2665 32.1827 83.0345 30.3054C83.8452 28.3854 84.2505 26.2734 84.2505 23.9694C84.2505 21.6654 83.8452 19.5747 83.0345 17.6974C82.2665 15.7774 81.1785 14.1134 79.7705 12.7054C78.3625 11.2547 76.6985 10.1454 74.7785 9.37738C72.8585 8.60938 70.7678 8.22538 68.5065 8.22538C66.2452 8.22538 64.1545 8.60938 62.2345 9.37738C60.3572 10.1454 58.6932 11.2547 57.2425 12.7054C55.8345 14.1134 54.7252 15.7774 53.9145 17.6974C53.1465 19.5747 52.7625 21.6654 52.7625 23.9694C52.7625 26.2307 53.1465 28.3214 53.9145 30.2414C54.7252 32.1614 55.8345 33.8467 57.2425 35.2974C58.6505 36.7054 60.3145 37.7934 62.2345 38.5614C64.1545 39.3294 66.2452 39.7134 68.5065 39.7134ZM122.382 47.0094C118.883 47.0094 115.662 46.4547 112.718 45.3454C109.816 44.1934 107.278 42.5934 105.102 40.5454C102.926 38.4547 101.24 36.0014 100.046 33.1854C98.8508 30.3694 98.2535 27.2974 98.2535 23.9694C98.2535 20.6414 98.8508 17.5694 100.046 14.7534C101.24 11.9374 102.926 9.50538 105.102 7.45738C107.32 5.36672 109.902 3.76672 112.846 2.65738C115.79 1.50538 119.011 0.929382 122.51 0.929382C126.307 0.929382 129.72 1.54805 132.75 2.78538C135.822 4.02272 138.403 5.83605 140.494 8.22538L135.246 13.3454C133.496 11.596 131.598 10.316 129.55 9.50538C127.544 8.65205 125.326 8.22538 122.894 8.22538C120.547 8.22538 118.371 8.60938 116.366 9.37738C114.36 10.1454 112.632 11.2334 111.182 12.6414C109.731 14.0494 108.6 15.7134 107.79 17.6334C107.022 19.5534 106.638 21.6654 106.638 23.9694C106.638 26.2307 107.022 28.3214 107.79 30.2414C108.6 32.1614 109.731 33.8467 111.182 35.2974C112.632 36.7054 114.339 37.7934 116.302 38.5614C118.264 39.3294 120.44 39.7134 122.83 39.7134C125.048 39.7134 127.182 39.3721 129.229 38.6894C131.32 37.9641 133.304 36.7694 135.182 35.1054L139.918 41.3134C137.571 43.1907 134.84 44.6201 131.726 45.6014C128.654 46.5401 125.539 47.0094 122.382 47.0094ZM132.046 40.2254V23.4574H139.918V41.3134L132.046 40.2254ZM144.555 46.3694L164.715 1.56938H172.907L193.131 46.3694H184.427L167.083 5.98538H170.411L153.131 46.3694H144.555ZM153.835 36.0014L156.075 29.4734H180.267L182.507 36.0014H153.835Z" fill="#424E3E"/>
</svg>
